<svg width="121" height="130" viewBox="0 0 121 130" fill="none" xmlns="http://www.w3.org/2000/svg">
<g filter="url(#filter0_d_75_63)">
<path d="M63.5937 21.3987C47.1258 21.9738 34.2985 35.3769 34.0368 51.6787L26.0375 63.0687C25.0366 64.465 26.1615 66.6215 27.9962 66.5575L34.5484 66.3287L35.0079 79.4873C35.1779 84.356 39.2019 88.124 44.0505 87.9547L48.4187 87.8021L48.8782 100.961L79.4552 99.893L78.7368 79.3216C88.9178 74.0476 95.6718 63.3159 95.2429 51.0345C94.6517 34.1037 80.5421 20.8069 63.5937 21.3987ZM82.3347 49.5969L73.8528 52.1767L80.365 58.317C81.946 59.7549 82.0348 62.299 80.5596 63.8875C79.0843 65.4761 76.5508 65.5646 75.012 64.0812L68.4139 57.9878L66.4864 66.6626C66.0373 68.8301 63.8961 70.1345 61.8232 69.636C59.6629 69.1406 58.3647 67.034 58.8591 64.9088L60.8724 56.1871L52.3484 58.8123C50.2716 59.4557 48.0446 58.3039 47.4454 56.1729C46.8055 54.1312 47.952 51.8954 50.074 51.2943L58.5575 48.7584L52.0437 42.5742C50.4628 41.1362 50.3755 38.6361 51.8492 37.0037C53.3244 35.4151 55.858 35.3266 57.3967 36.8099L63.9511 42.9049L65.9223 34.2286C66.373 32.1049 68.4705 30.802 70.4982 31.2582C72.7022 31.7522 74.0003 33.8587 73.5512 36.0262L71.5363 44.7041L80.0167 42.0804C82.1387 41.4793 84.322 42.6327 84.9664 44.806C85.5611 46.8053 84.413 48.9973 82.3347 49.5969Z" fill="black"/>
</g>
<defs>
<filter id="filter0_d_75_63" x="0.663086" y="0.379761" width="119.599" height="129.581" filterUnits="userSpaceOnUse" color-interpolation-filters="sRGB">
<feFlood flood-opacity="0" result="BackgroundImageFix"/>
<feColorMatrix in="SourceAlpha" type="matrix" values="0 0 0 0 0 0 0 0 0 0 0 0 0 0 0 0 0 0 127 0" result="hardAlpha"/>
<feOffset dy="4"/>
<feGaussianBlur stdDeviation="12.5"/>
<feComposite in2="hardAlpha" operator="out"/>
<feColorMatrix type="matrix" values="0 0 0 0 0 0 0 0 0 0 0 0 0 0 0 0 0 0 0.25 0"/>
<feBlend mode="normal" in2="BackgroundImageFix" result="effect1_dropShadow_75_63"/>
<feBlend mode="normal" in="SourceGraphic" in2="effect1_dropShadow_75_63" result="shape"/>
</filter>
</defs>
</svg>
