<svg width="167" height="123" viewBox="0 0 167 123" fill="none" xmlns="http://www.w3.org/2000/svg">
<g filter="url(#filter0_d_75_69)">
<path d="M85.6932 21.1827C90.177 21.3393 94.4151 23.2686 97.4751 26.5461C100.535 29.8236 102.166 34.1809 102.01 38.6594C101.853 43.1379 99.9223 47.3708 96.6411 50.4269C93.36 53.4829 88.9977 55.1118 84.5138 54.9553C80.03 54.7987 75.7919 52.8694 72.7319 49.5919C69.672 46.3144 68.0408 41.9571 68.1971 37.4786C68.3535 33.0001 70.2847 28.7672 73.5659 25.7111C76.847 22.6551 81.2093 21.0262 85.6932 21.1827ZM51.4593 32.0636C54.1643 32.158 56.6508 32.9695 58.779 34.348C57.8135 41.222 59.603 48.1438 63.5702 53.6442C60.9932 58.1915 56.0516 61.2071 50.4484 61.0115C46.6051 60.8772 42.9724 59.2236 40.3496 56.4143C37.7268 53.605 36.3286 49.8702 36.4627 46.0315C36.5967 42.1928 38.252 38.5646 41.0644 35.9451C43.8768 33.3256 47.616 31.9294 51.4593 32.0636ZM119.085 34.4251C122.928 34.5593 126.561 36.213 129.183 39.0223C131.806 41.8316 133.204 45.5664 133.07 49.4051C132.936 53.2438 131.281 56.872 128.469 59.4915C125.656 62.111 121.917 63.5072 118.074 63.373C112.471 63.1773 107.751 59.8244 105.498 55.1084C109.839 49.8981 112.107 43.1179 111.623 36.1934C113.843 34.9666 116.38 34.3307 119.085 34.4251ZM52.1475 81.6005C52.4963 71.6135 66.8358 63.999 84.1769 64.6045C101.518 65.2101 115.291 73.8064 114.943 83.7934L114.648 92.2365L51.8527 90.0437L52.1475 81.6005ZM25.2856 89.1159L25.5383 81.879C25.7725 75.1727 35.099 69.8467 47.5221 68.6381C44.5576 71.8194 42.6603 76.2938 42.4868 81.2632L42.1919 89.7063L25.2856 89.1159ZM141.215 93.1643L124.309 92.5739L124.603 84.1308C124.777 79.1614 123.196 74.5655 120.461 71.1852C132.769 73.2574 141.702 79.221 141.468 85.9273L141.215 93.1643Z" fill="black"/>
</g>
<defs>
<filter id="filter0_d_75_69" x="0.285645" y="0.172363" width="166.187" height="121.992" filterUnits="userSpaceOnUse" color-interpolation-filters="sRGB">
<feFlood flood-opacity="0" result="BackgroundImageFix"/>
<feColorMatrix in="SourceAlpha" type="matrix" values="0 0 0 0 0 0 0 0 0 0 0 0 0 0 0 0 0 0 127 0" result="hardAlpha"/>
<feOffset dy="4"/>
<feGaussianBlur stdDeviation="12.5"/>
<feComposite in2="hardAlpha" operator="out"/>
<feColorMatrix type="matrix" values="0 0 0 0 0 0 0 0 0 0 0 0 0 0 0 0 0 0 0.25 0"/>
<feBlend mode="normal" in2="BackgroundImageFix" result="effect1_dropShadow_75_69"/>
<feBlend mode="normal" in="SourceGraphic" in2="effect1_dropShadow_75_69" result="shape"/>
</filter>
</defs>
</svg>
