<svg width="1080" height="1080" viewBox="0 0 1080 1080" fill="none" xmlns="http://www.w3.org/2000/svg">
<rect x="69" y="58" width="965" height="965" rx="482.5" fill="#BAF0AB"/>
<g filter="url(#filter0_d_312_272)">
<path d="M399.846 212.868L403.831 212.847C408.211 212.821 412.586 212.811 416.966 212.801L426.419 212.754C436.752 212.707 447.086 212.681 457.419 212.655L468.143 212.623C483.034 212.587 497.924 212.556 512.81 212.535C534.049 212.509 555.289 212.446 576.529 212.342C591.513 212.274 606.497 212.238 621.482 212.233C630.404 212.222 639.325 212.207 648.247 212.144C737.133 211.592 737.133 211.592 773.716 232.243C795.279 245.431 812.398 263.446 824.836 285.426C846.825 326.306 843.081 374.176 842.966 419.259C842.945 426.754 842.95 434.243 842.95 441.738C842.95 454.301 842.935 466.868 842.909 479.431C842.883 493.868 842.872 508.306 842.872 522.743C842.872 538.254 842.862 553.764 842.846 569.274C842.841 573.686 842.841 578.097 842.841 582.509C842.81 682.827 842.81 682.827 830.065 710.457L827.502 716.92C824.221 724.004 820.654 731.035 815.805 737.196H812.242C812.117 738.191 811.992 739.186 811.867 740.207C808.752 749.316 799.581 755.795 792.633 762.149C788.555 765.551 784.706 768.274 780.159 771.061H774.81V774.629C751.836 786.54 731.289 792.123 705.43 793.426L700.763 793.665C688.752 794.217 676.773 794.321 664.752 794.295C659.362 794.311 653.966 794.327 648.575 794.347C644.924 794.347 641.273 794.321 637.627 794.274C613.508 793.587 613.508 793.587 590.898 800.759C586.06 803.686 581.497 806.915 576.95 810.274C574.325 811.972 571.69 813.649 569.044 815.316C566.919 816.748 564.805 818.186 562.695 819.634L559.44 821.832C554.398 825.238 549.393 828.691 544.424 832.196L539.518 835.233H534.174V838.795C529.159 842.582 529.159 842.582 523.476 845.926H518.133V849.493C515.091 851.936 515.091 851.936 510.82 854.733L506.086 857.868L500.976 861.191L495.815 864.566C492.377 866.816 488.94 869.056 485.497 871.295C481.331 874.035 477.195 876.827 473.096 879.66L469.752 881.931C466.862 883.894 463.982 885.868 461.107 887.858C455.742 890.488 455.742 890.488 449.268 891.452L443.268 890.488C439.393 887.176 439.393 887.176 436.138 881.577C435.055 875.181 435.06 868.853 435.049 862.379L434.961 856.78C434.872 850.899 434.836 845.014 434.799 839.134C434.747 835.134 434.695 831.139 434.638 827.144C434.508 817.363 434.414 807.582 434.351 797.801C429.851 795.551 426.544 795.707 421.508 795.577L415.805 795.41L409.732 795.238C384.331 794.327 361.7 792.217 338.101 781.759C334.476 779.467 330.914 777.087 327.403 774.629L323.351 772.03C303.226 759.051 286.898 742.842 275.56 721.592C261.081 692.676 259.403 664.149 259.383 632.446L259.357 622.821C259.336 614.139 259.32 605.462 259.315 596.78C259.31 591.342 259.299 585.905 259.294 580.472C259.268 563.431 259.252 546.394 259.242 529.353C259.237 509.743 259.206 490.139 259.153 470.53C259.112 455.332 259.096 440.134 259.096 424.931C259.096 415.873 259.081 406.816 259.049 397.759C259.023 389.233 259.018 380.702 259.034 372.17C259.034 369.061 259.028 365.946 259.008 362.837C258.877 338.373 260.305 314.321 271.476 292.019L273.336 288.196C279.153 276.712 286.528 267.108 295.32 257.707L298.232 254.306C312.044 239.03 333.153 227.264 352.357 220.274C368.086 215.561 383.403 212.936 399.846 212.868Z" fill="#299771"/>
</g>
<g filter="url(#filter1_d_312_272)">
<path d="M616.297 315.474C632.995 323.047 646.083 331.661 659.115 344.651L662.167 347.578C672.948 358.875 680.313 374.083 684.328 389.104C689.26 410.479 688.344 432.198 682.385 453.338C672.88 480.615 656.792 498.365 635.385 517.13C629.786 521.786 624.104 526.349 618.344 530.812L615.385 533.109C611.505 536.073 607.849 538.75 603.401 540.786L600.297 542.51C598.313 545.865 598.313 545.865 596.729 549.641C595 552.026 593.255 554.406 591.495 556.771C584.536 567.125 584.536 567.125 580.688 587.073H512.953C512.953 562.755 514.458 546.943 525.542 526.245C535.563 509.995 549.672 497.37 565.042 486.25C568.667 483.578 568.667 483.578 571.776 478.338L575.677 476.224C584.401 470.599 590.656 463.021 595.88 454.088C602.625 440.891 604.245 431.193 604.156 416.344C603.807 409.651 602.62 404.38 600.297 398.125H596.729L594.5 394.094C590.62 388.021 587.01 385.844 580.688 382.422C567.536 375.797 554.911 375.047 540.37 375.854C528.599 376.943 519.797 380.76 509.833 386.875C496.594 400.484 493.479 412.802 488 431.995H414.917C412.359 426.885 413.135 422.865 413.469 417.177C415.286 395.141 422.396 375.625 434.521 357.13C448.672 338.771 466.542 323.875 487.703 314.057C528.49 298.302 575.807 298.625 616.292 315.474" fill="#ABE1C3"/>
</g>
<g filter="url(#filter2_d_312_272)">
<path d="M561.859 633.526C571.068 636.875 577.677 642.286 584.25 649.458C589.167 655.62 591.739 661.964 592.943 669.734C593.51 678.286 592.713 686 589.599 694.021C585.307 701.516 580.375 707.094 573.672 712.516C564.463 717.396 555.719 719.76 545.224 719.411C536.719 718.422 529.151 715.979 521.89 711.391C515.224 706.161 510.542 700.484 507.109 692.719C504.239 683.698 502.979 674.437 504.828 665.083C506.068 661.427 507.542 658.198 509.385 654.807L511.172 651.469C515.271 644.849 519.672 641.078 526.432 637.203C538.099 631.099 549.042 629.922 561.859 633.526Z" fill="#ABE1C3"/>
</g>
<defs>
<filter id="filter0_d_312_272" x="223.7" y="180.7" width="654.875" height="750.052" filterUnits="userSpaceOnUse" color-interpolation-filters="sRGB">
<feFlood flood-opacity="0" result="BackgroundImageFix"/>
<feColorMatrix in="SourceAlpha" type="matrix" values="0 0 0 0 0 0 0 0 0 0 0 0 0 0 0 0 0 0 127 0" result="hardAlpha"/>
<feOffset dy="4"/>
<feGaussianBlur stdDeviation="17.65"/>
<feComposite in2="hardAlpha" operator="out"/>
<feColorMatrix type="matrix" values="0 0 0 0 0 0 0 0 0 0 0 0 0 0 0 0 0 0 0.25 0"/>
<feBlend mode="normal" in2="BackgroundImageFix" result="effect1_dropShadow_312_272"/>
<feBlend mode="normal" in="SourceGraphic" in2="effect1_dropShadow_312_272" result="shape"/>
</filter>
<filter id="filter1_d_312_272" x="362.093" y="255.53" width="376.417" height="386.543" filterUnits="userSpaceOnUse" color-interpolation-filters="sRGB">
<feFlood flood-opacity="0" result="BackgroundImageFix"/>
<feColorMatrix in="SourceAlpha" type="matrix" values="0 0 0 0 0 0 0 0 0 0 0 0 0 0 0 0 0 0 127 0" result="hardAlpha"/>
<feOffset dy="4"/>
<feGaussianBlur stdDeviation="25.5"/>
<feComposite in2="hardAlpha" operator="out"/>
<feColorMatrix type="matrix" values="0 0 0 0 0 0 0 0 0 0 0 0 0 0 0 0 0 0 0.25 0"/>
<feBlend mode="normal" in2="BackgroundImageFix" result="effect1_dropShadow_312_272"/>
<feBlend mode="normal" in="SourceGraphic" in2="effect1_dropShadow_312_272" result="shape"/>
</filter>
<filter id="filter2_d_312_272" x="452.959" y="584.496" width="191.153" height="189.949" filterUnits="userSpaceOnUse" color-interpolation-filters="sRGB">
<feFlood flood-opacity="0" result="BackgroundImageFix"/>
<feColorMatrix in="SourceAlpha" type="matrix" values="0 0 0 0 0 0 0 0 0 0 0 0 0 0 0 0 0 0 127 0" result="hardAlpha"/>
<feOffset dy="4"/>
<feGaussianBlur stdDeviation="25.5"/>
<feComposite in2="hardAlpha" operator="out"/>
<feColorMatrix type="matrix" values="0 0 0 0 0 0 0 0 0 0 0 0 0 0 0 0 0 0 0.25 0"/>
<feBlend mode="normal" in2="BackgroundImageFix" result="effect1_dropShadow_312_272"/>
<feBlend mode="normal" in="SourceGraphic" in2="effect1_dropShadow_312_272" result="shape"/>
</filter>
</defs>
</svg>
